<svg width="24" height="29" viewBox="0 0 24 29" fill="none" xmlns="http://www.w3.org/2000/svg">
<path d="M8.44906 0.919999C13.1957 0.919999 16.8491 2.16 19.4091 4.64C21.9957 7.12 23.2891 10.5733 23.2891 15C23.2891 19.4267 21.9957 22.8667 19.4091 25.32C16.8491 27.7733 13.1957 29 8.44906 29H0.569063V0.919999H8.44906ZM8.44906 27.48C12.6891 27.48 15.9157 26.3867 18.1291 24.2C20.3424 21.9867 21.4491 18.92 21.4491 15C21.4491 11.0533 20.3424 7.97333 18.1291 5.76C15.9157 3.54667 12.6891 2.44 8.44906 2.44H2.36906V27.48H8.44906ZM23.2131 0.919999V2.44H10.5331V14.16H21.6131V15.68H10.5331V29H8.73313V0.919999H23.2131Z" fill="black"/>
</svg>
