<svg width="30" height="31" viewBox="0 0 50 61" fill="none" xmlns="http://www.w3.org/2000/svg">
<path d="M24.9999 20.883C28.5418 20.883 31.4129 18.1873 31.4129 14.862C31.4129 11.5367 28.5418 8.84094 24.9999 8.84094C21.4579 8.84094 18.5863 11.5367 18.5863 14.862C18.5863 18.1873 21.4579 20.883 24.9999 20.883ZM24.9999 10.7185C27.4334 10.7185 29.413 12.5771 29.413 14.862C29.413 17.1467 27.4334 19.0053 24.9999 19.0053C22.5663 19.0053 20.5864 17.1467 20.5864 14.862C20.5862 12.5773 22.5663 10.7185 24.9999 10.7185Z" fill="white"/>
<path d="M18.4998 22.2663C18.4998 22.2663 11.9998 22.3478 11.9998 27.9619C11.9998 33.5761 11.9998 34.878 11.9998 34.878C11.9998 34.878 24.6525 34.878 24.696 34.878L18.4998 22.2663ZM13.9998 27.9619C13.9998 25.4479 15.9158 24.5873 17.2933 24.2937L21.5711 33.0003H13.9998V27.9619Z" fill="white"/>
<path d="M37.9999 34.878C37.9999 34.878 37.9999 33.5761 37.9999 27.9619C37.9999 22.3478 31.4999 22.2663 31.4999 22.2663L25.3031 34.878H37.9999ZM32.7065 24.2937C34.0839 24.5873 36 25.4477 36 27.9619V33.0004H28.4283L32.7065 24.2937Z" fill="white"/>
<path d="M20.5364 22.2663L24.9998 31.5419L29.4631 22.2663H24.9998H20.5364Z" fill="white"/>
<path d="M40.9999 0.14209H0V60.2273H50V9.53047L40.9999 0.14209ZM41.0414 2.99209L47.4218 9.6477H41.0414V2.99209ZM1.99993 58.3497V2.01982H39.0414V11.5255H47.9999V58.3497H1.99993Z" fill="white"/>
<path d="M40.0003 41.381H10.0004V43.2581H40.0003V41.381Z" fill="white"/>
<path d="M40.0003 46.1797H10.0004V48.0568H40.0003V46.1797Z" fill="white"/>
<path d="M40.0003 50.9784H10.0004V52.8556H40.0003V50.9784Z" fill="white"/>
</svg>
