<svg width="70" height="70" viewBox="0 0 70 70" fill="none" xmlns="http://www.w3.org/2000/svg">
<g clip-path="url(#clip0_6_104)">
<path d="M0.5 0H69.5V69.098H0.5V0Z" fill="#F0DB4F"/>
<path d="M63.8527 52.6183C63.3477 49.4655 61.2948 46.8185 55.2146 44.3489C53.1026 43.3768 50.748 42.6806 50.0462 41.0779C49.7969 40.1452 49.7641 39.6197 49.9216 39.0548C50.3741 37.2223 52.5583 36.6509 54.2898 37.1763C55.4048 37.5507 56.4608 38.4112 57.097 39.7839C60.0748 37.8529 60.0682 37.866 62.1474 36.5393C61.3866 35.357 60.9799 34.8118 60.4814 34.3061C58.6909 32.3027 56.2509 31.2715 52.3484 31.3503C51.6728 31.4357 50.9907 31.5276 50.3151 31.6131C48.3672 32.1057 46.5109 33.1303 45.4221 34.5031C42.1558 38.2142 43.0872 44.7101 47.0619 47.3835C50.9776 50.326 56.7297 50.996 57.4643 53.7481C58.1793 57.1176 54.9917 58.2079 51.8237 57.8204C49.4887 57.3344 48.1901 56.1455 46.7864 53.9846C44.2022 55.4821 44.2022 55.4821 41.5459 57.0125C42.1755 58.3918 42.8379 59.0158 43.894 60.2113C48.8919 65.2885 61.3997 65.0389 63.6429 57.3541C63.7347 57.0913 64.3382 55.331 63.8527 52.6183ZM38.0105 31.7575H31.5565C31.5565 37.3405 31.5304 42.8841 31.5304 48.4672C31.5304 52.0206 31.714 55.2784 31.1368 56.2768C30.1923 58.2406 27.7459 57.9977 26.6308 57.6167C25.4961 57.0584 24.919 56.2636 24.25 55.1405C24.0663 54.8187 23.9286 54.5691 23.8826 54.5494C22.1314 55.62 20.3867 56.6971 18.6354 57.7678C19.5078 59.5609 20.7933 61.1176 22.4396 62.1291C24.8992 63.6069 28.2049 64.0601 31.6615 63.2654C33.9113 62.6085 35.8526 61.249 36.8693 59.18C38.3385 56.4673 38.0237 53.1832 38.0105 49.5509C38.0433 43.6263 38.0105 37.7018 38.0105 31.7575Z" fill="#323330"/>
</g>
<defs>
<clipPath id="clip0_6_104">
<rect width="69" height="69.098" fill="white" transform="translate(0.5)"/>
</clipPath>
</defs>
</svg>
