<svg width="79" height="71" viewBox="0 0 79 71" fill="none" xmlns="http://www.w3.org/2000/svg">
<path d="M37.4726 33.5461L38.9929 37.5518L41.78 34.2972M41.78 34.2972L44.0604 37.0511L42.7429 37.5518M41.78 34.2972L39.4997 31.5433L37.4726 32.5447M37.4726 32.5447L35.4456 33.5461L37.4726 39.5547L42.7429 37.5518M37.4726 32.5447L39.4997 33.5461L42.7429 37.5518M26.3241 30.0412C32.574 19.1924 47.709 -1.30332 58.2495 3.5035C68.7899 8.31032 55.8846 35.8828 48.1145 49.0681C41.5267 57.7471 26.7295 73.5028 20.2431 67.0937C12.135 59.0824 21.2566 39.0539 26.3241 30.0412ZM20.2431 3.5035C16.358 6.34086 12.5405 18.625 28.3511 45.0625C44.1618 71.5 55.8846 70.098 59.7697 66.0923C62.8102 63.9226 65.1413 52.7734 50.1414 25.5348C44.2293 15.8544 29.9727 -2.10446 20.2431 3.5035ZM2 36.0497C2.50675 40.3892 10.7161 49.2684 39.4997 50.0696C75.4791 51.071 76.9993 37.0511 76.9993 36.0497C76.9993 35.0483 80.0398 23.5319 39.4997 21.0284C27.3376 21.3622 2.8108 24.8338 2 36.0497ZM33.9254 36.0497C33.9254 34.0468 35.0402 30.0412 39.4997 30.0412C43.9591 30.0412 45.0739 34.0468 45.0739 36.0497C44.5672 38.0525 43.5537 41.0568 39.4997 41.0568C35.9524 41.0568 34.9389 39.0539 33.9254 36.0497Z" stroke="#5FC5FF" stroke-width="3"/>
</svg>
