<svg width="71" height="70" viewBox="0 0 71 70" fill="none" xmlns="http://www.w3.org/2000/svg">
<g clip-path="url(#clip0_6_101)">
<path d="M0.5 34.5504V0.00142264H70.5V69.0995H0.5" fill="#007ACC"/>
<path d="M15.8475 34.6714V37.4871H24.9475V63.0534H31.405V37.4871H40.505V34.7232C40.505 33.1685 40.505 31.9074 40.435 31.8729C40.435 31.8211 34.8875 31.8038 28.15 31.8038L15.9 31.8556V34.6886L15.8475 34.6714ZM56.745 31.7865C58.53 32.2011 59.895 32.9957 61.12 34.2568C61.7675 34.9478 62.73 36.157 62.8 36.4679C62.8 36.5716 59.7725 38.5927 57.935 39.7155C57.865 39.7673 57.585 39.4737 57.305 39.0245C56.395 37.7462 55.4675 37.1934 54.015 37.0898C51.915 36.9516 50.515 38.0399 50.515 39.8537C50.515 40.4065 50.62 40.7174 50.83 41.1666C51.3025 42.1167 52.1775 42.6867 54.89 43.8614C59.895 45.9862 62.065 47.3854 63.3775 49.3892C64.865 51.6349 65.1975 55.1589 64.2 57.8019C63.08 60.6868 60.35 62.6388 56.4475 63.2779C55.2225 63.4852 52.4225 63.4507 51.11 63.2261C48.31 62.7079 45.6325 61.3259 43.9875 59.5467C43.34 58.8557 42.0975 57.0073 42.1675 56.8864L42.8325 56.4718L45.4575 54.9689L47.435 53.8288L47.89 54.4334C48.4675 55.3317 49.7625 56.5409 50.515 56.9555C52.79 58.1129 55.835 57.9574 57.34 56.61C57.9875 56.0227 58.2675 55.4008 58.2675 54.5371C58.2675 53.7424 58.145 53.3797 57.7425 52.775C57.1825 52.015 56.0625 51.3931 52.9125 50.0111C49.29 48.491 47.75 47.5236 46.315 46.038C45.4925 45.1397 44.74 43.7405 44.39 42.5831C44.1275 41.5812 44.04 39.1282 44.285 38.1435C45.0375 34.6886 47.68 32.2702 51.46 31.5792C52.685 31.3374 55.5725 31.441 56.78 31.752L56.745 31.7865Z" fill="white"/>
</g>
<defs>
<clipPath id="clip0_6_101">
<rect width="70" height="69.098" fill="white" transform="translate(0.5 0.00142264)"/>
</clipPath>
</defs>
</svg>
