<svg width="51" height="51" viewBox="0 0 51 51" fill="none" xmlns="http://www.w3.org/2000/svg">
<path d="M37.7374 29.0215C37.6381 28.9747 33.92 27.1772 33.2593 26.9437C32.9896 26.8486 32.7007 26.7558 32.3933 26.7558C31.8913 26.7558 31.4695 27.0014 31.141 27.4839C30.7696 28.0259 29.6453 29.3162 29.2979 29.7017C29.2525 29.7526 29.1906 29.8134 29.1535 29.8134C29.1202 29.8134 28.5448 29.5807 28.3706 29.5064C24.3822 27.8055 21.3548 23.7151 20.9397 23.0253C20.8804 22.9262 20.8779 22.8811 20.8774 22.8811C20.892 22.8286 21.0261 22.6966 21.0953 22.6285C21.2978 22.4318 21.5172 22.1725 21.7295 21.9217C21.83 21.8028 21.9307 21.6838 22.0296 21.5716C22.3376 21.2198 22.4747 20.9467 22.6336 20.6304L22.7169 20.466C23.105 19.7089 22.7735 19.07 22.6664 18.8637C22.5785 18.6911 21.0086 14.9712 20.8417 14.5804C20.4403 13.6373 19.9099 13.1982 19.1729 13.1982C19.1045 13.1982 19.1729 13.1982 18.8861 13.2101C18.5369 13.2246 16.6352 13.4704 15.7943 13.9908C14.9026 14.5427 13.3942 16.302 13.3942 19.396C13.3942 22.1806 15.1941 24.8098 15.9669 25.8098C15.9861 25.835 16.0213 25.8862 16.0725 25.9597C19.032 30.203 22.7214 33.3478 26.4614 34.8146C30.0621 36.2267 31.7671 36.3899 32.7364 36.3899H32.7366C33.1439 36.3899 33.47 36.3585 33.7576 36.3307L33.9401 36.3137C35.1839 36.2054 37.9174 34.8148 38.5392 33.1184C39.029 31.7822 39.1581 30.3224 38.8323 29.7926C38.6091 29.4323 38.2244 29.251 37.7374 29.0215Z" fill="white"/>
<path d="M25.9527 0.250122C12.1403 0.250122 0.90306 11.1997 0.90306 24.6586C0.90306 29.0117 2.08964 33.2728 4.33745 37.0021L0.0350655 49.4622C-0.0450774 49.6945 0.014533 49.9513 0.189556 50.1262C0.315897 50.2529 0.487277 50.3212 0.6623 50.3212C0.729361 50.3212 0.79692 50.3112 0.862823 50.2906L14.0963 46.162C17.7177 48.0616 21.8106 49.0643 25.9529 49.0643C39.7639 49.0645 51 38.116 51 24.6586C51 11.1997 39.7639 0.250122 25.9527 0.250122ZM25.9527 43.98C22.055 43.98 18.2798 42.875 15.0347 40.7844C14.9256 40.714 14.7989 40.6779 14.6714 40.6779C14.604 40.6779 14.5365 40.688 14.4707 40.7085L7.84155 42.7773L9.98156 36.5788C10.0508 36.3782 10.0162 36.1569 9.88867 35.9859C7.41749 32.6708 6.11119 28.754 6.11119 24.6586C6.11119 14.0034 15.012 5.33461 25.9525 5.33461C36.8917 5.33461 45.7915 14.0034 45.7915 24.6586C45.7917 35.3125 36.892 43.98 25.9527 43.98Z" fill="white"/>
</svg>
