<svg width="50" height="51" viewBox="0 0 50 51" fill="none" xmlns="http://www.w3.org/2000/svg">
<path fill-rule="evenodd" clip-rule="evenodd" d="M25.0207 0.831757C11.1849 0.831757 0 12.3063 0 26.5019C0 37.8492 7.16655 47.4545 17.1084 50.8541C18.3514 51.1097 18.8067 50.3017 18.8067 49.6221C18.8067 49.027 18.7658 46.9872 18.7658 44.8618C11.8056 46.392 10.3562 41.8017 10.3562 41.8017C9.23769 38.8267 7.58037 38.062 7.58037 38.062C5.30231 36.4895 7.7463 36.4895 7.7463 36.4895C10.2733 36.6595 11.5992 39.1245 11.5992 39.1245C13.8358 43.0342 17.4398 41.9295 18.8897 41.2494C19.0966 39.5918 19.7599 38.4443 20.4641 37.807C14.9128 37.2119 9.07227 35.002 9.07227 25.1417C9.07227 22.3367 10.0658 20.0417 11.6402 18.2569C11.3918 17.6196 10.5217 14.9841 11.8891 11.4567C11.8891 11.4567 14.0017 10.7766 18.7653 14.0917C20.8047 13.5298 22.9079 13.2439 25.0207 13.2415C27.1333 13.2415 29.2869 13.5393 31.2756 14.0917C36.0396 10.7766 38.1523 11.4567 38.1523 11.4567C39.5197 14.9841 38.6491 17.6196 38.4007 18.2569C40.0165 20.0417 40.9691 22.3367 40.9691 25.1417C40.9691 35.002 35.1285 37.1691 29.5358 37.807C30.4475 38.6144 31.2341 40.1441 31.2341 42.5668C31.2341 46.0092 31.1931 48.772 31.1931 49.6216C31.1931 50.3017 31.649 51.1097 32.8914 50.8546C42.8333 47.454 49.9999 37.8492 49.9999 26.5019C50.0409 12.3063 38.815 0.831757 25.0207 0.831757Z" fill="white"/>
</svg>
