<svg width="27" height="29" viewBox="0 0 27 29" fill="none" xmlns="http://www.w3.org/2000/svg">
<path d="M7.9566 12.0527L5.64134 14.3713C4.69186 15.3221 4.15845 16.6117 4.15845 17.9564C4.15845 19.3011 4.69186 20.5907 5.64134 21.5415C6.59083 22.4924 7.8786 23.0265 9.22138 23.0265C10.5641 23.0265 11.8519 22.4924 12.8014 21.5415L15.8862 18.4507C16.4587 17.8772 16.8856 17.1746 17.1308 16.4018C17.3761 15.6289 17.4327 14.8085 17.2958 14.0092C17.1589 13.2099 16.8326 12.4552 16.3442 11.8084C15.8558 11.1616 15.2196 10.6415 14.4889 10.2919L13.5 11.2822C13.3996 11.3829 13.3123 11.4959 13.2402 11.6184C13.8047 11.781 14.3171 12.0882 14.7267 12.5098C15.1363 12.9314 15.4289 13.4527 15.5757 14.0223C15.7224 14.5918 15.7182 15.1899 15.5634 15.7573C15.4086 16.3247 15.1086 16.8419 14.6931 17.2576L11.61 20.3468C10.9767 20.9809 10.1178 21.3372 9.22222 21.3372C8.32662 21.3372 7.46769 20.9809 6.83441 20.3468C6.20112 19.7126 5.84534 18.8524 5.84534 17.9556C5.84534 17.0587 6.20112 16.1985 6.83441 15.5644L8.17259 14.226C7.98379 13.5174 7.91084 12.7846 7.9566 12.0527Z" fill="#4DBFFF"/>
<path d="M11.1139 8.89265C10.5413 9.4661 10.1145 10.1687 9.86918 10.9416C9.62389 11.7144 9.56732 12.5349 9.70419 13.3341C9.84107 14.1334 10.1674 14.8881 10.6558 15.535C11.1442 16.1818 11.7805 16.7018 12.5111 17.0515L13.8189 15.7401C13.2468 15.5864 12.7251 15.2846 12.3063 14.8651C11.8875 14.4455 11.5864 13.923 11.4332 13.35C11.2799 12.7769 11.28 12.1736 11.4334 11.6006C11.5868 11.0276 11.888 10.5052 12.3069 10.0857L15.39 6.99658C16.0233 6.3624 16.8822 6.00611 17.7778 6.00611C18.6734 6.00611 19.5323 6.3624 20.1656 6.99658C20.7989 7.63077 21.1547 8.49091 21.1547 9.38779C21.1547 10.2847 20.7989 11.1448 20.1656 11.779L18.8274 13.1174C19.0164 13.8272 19.089 14.5623 19.0434 15.2923L21.3587 12.9738C22.3082 12.0229 22.8416 10.7333 22.8416 9.38863C22.8416 8.04395 22.3082 6.75435 21.3587 5.80352C20.4092 4.85268 19.1214 4.31851 17.7786 4.31851C16.4359 4.31851 15.1481 4.85268 14.1986 5.80352L11.1139 8.89265Z" fill="#4DBFFF"/>
</svg>
