<svg width="51" height="51" viewBox="0 0 51 51" fill="none" xmlns="http://www.w3.org/2000/svg">
<path d="M40.375 0.250122H10.625C4.75787 0.250122 0 4.92133 0 10.6816V39.8897C0 45.65 4.75787 50.3212 10.625 50.3212H40.375C46.2442 50.3212 51 45.65 51 39.8897V10.6816C51 4.92133 46.2442 0.250122 40.375 0.250122ZM17 39.8897H10.625V16.9405H17V39.8897ZM13.8125 14.295C11.7597 14.295 10.0937 12.6469 10.0937 10.6148C10.0937 8.58278 11.7597 6.93461 13.8125 6.93461C15.8652 6.93461 17.5312 8.58278 17.5312 10.6148C17.5312 12.6469 15.8674 14.295 13.8125 14.295ZM42.5 39.8897H36.125V28.1981C36.125 21.1715 27.625 21.7035 27.625 28.1981V39.8897H21.25V16.9405H27.625V20.6228C30.5915 15.2276 42.5 14.8291 42.5 25.7884V39.8897Z" fill="white"/>
</svg>
